<svg xmlns="http://www.w3.org/2000/svg" width="229.447" height="54.655" viewBox="0 0 229.447 54.655">
    <path data-name="capitalg-logo@logotyp.us" d="M21.117 42.234a21.176 21.176 0 0 1-8.34-1.6 21.737 21.737 0 0 1-6.743-4.614A19.406 19.406 0 0 1 1.6 29.28 20.924 20.924 0 0 1 0 21.117a21.176 21.176 0 0 1 1.6-8.34 24.689 24.689 0 0 1 4.433-6.744A19.406 19.406 0 0 1 12.777 1.6 20.924 20.924 0 0 1 20.939 0a19.938 19.938 0 0 1 5.678.71 24.665 24.665 0 0 1 4.969 2.129 19.1 19.1 0 0 1 4.259 3.194 37.591 37.591 0 0 1 3.549 4.259l-5.324 3.372a15.854 15.854 0 0 0-5.146-5.678 13.707 13.707 0 0 0-7.63-2.129A12.857 12.857 0 0 0 15.438 7.1a17.4 17.4 0 0 0-4.791 3.194 11.826 11.826 0 0 0-3.372 4.969 16.31 16.31 0 0 0-1.065 5.856 15.631 15.631 0 0 0 1.065 5.856 14.181 14.181 0 0 0 3.194 4.791 12.642 12.642 0 0 0 4.791 3.194 15.688 15.688 0 0 0 5.857 1.24 13.8 13.8 0 0 0 8.163-2.307 15.385 15.385 0 0 0 5.146-6.033l5.5 3.017a22.546 22.546 0 0 1-3.194 4.791 16.222 16.222 0 0 1-4.259 3.549 19.09 19.09 0 0 1-5.146 2.307 37.007 37.007 0 0 1-6.211.71m37.265-5.5a7.945 7.945 0 0 0 3.549-.71 10.142 10.142 0 0 0 2.839-1.952 9.533 9.533 0 0 0 1.775-2.839 7.945 7.945 0 0 0 .71-3.549 7.945 7.945 0 0 0-.71-3.549 11.076 11.076 0 0 0-1.775-2.839 8.108 8.108 0 0 0-2.839-1.952 9.228 9.228 0 0 0-7.1 0 9.461 9.461 0 0 0-4.791 4.791 7.945 7.945 0 0 0-.71 3.549 7.945 7.945 0 0 0 .71 3.549 10.986 10.986 0 0 0 1.952 3.017 10.142 10.142 0 0 0 2.842 1.95 12.3 12.3 0 0 0 3.549.532m-.71 5.5a12.729 12.729 0 0 1-5.146-1.065 12.343 12.343 0 0 1-4.436-3.017 17.741 17.741 0 0 1-3.19-4.611 16.629 16.629 0 0 1-1.242-6.033 13.115 13.115 0 0 1 1.242-6.034 13.878 13.878 0 0 1 3.017-4.614 15.115 15.115 0 0 1 4.436-3.017 14.241 14.241 0 0 1 5.324-1.065A12.965 12.965 0 0 1 63 13.841a11.669 11.669 0 0 1 4.081 3.017v-3.372h6.033V41.7h-6.037v-3.9A10.259 10.259 0 0 1 63 40.992a11.682 11.682 0 0 1-5.324 1.242m35.846-5.5a7.945 7.945 0 0 0 3.549-.71 10.142 10.142 0 0 0 2.839-1.952 8.857 8.857 0 0 0 1.952-3.017 7.945 7.945 0 0 0 .71-3.549 7.945 7.945 0 0 0-.71-3.549 8.108 8.108 0 0 0-1.952-2.839 10.142 10.142 0 0 0-2.839-1.952 9.228 9.228 0 0 0-7.1 0 10.142 10.142 0 0 0-2.839 1.952 9.533 9.533 0 0 0-1.775 2.839 7.945 7.945 0 0 0-.71 3.549 7.945 7.945 0 0 0 .71 3.549 11.077 11.077 0 0 0 1.775 2.839 8.108 8.108 0 0 0 2.839 1.952 5.9 5.9 0 0 0 3.549.887m.887 5.5a14.461 14.461 0 0 1-5.5-1.065 11.669 11.669 0 0 1-4.081-3.017v16.5h-6.037V13.486h6.033v3.9a12.6 12.6 0 0 1 4.078-3.367 10.717 10.717 0 0 1 5.324-1.242 14.241 14.241 0 0 1 5.324 1.065 10.99 10.99 0 0 1 4.436 3.017A13.878 13.878 0 0 1 107 21.472a16.629 16.629 0 0 1 1.242 6.033A13.115 13.115 0 0 1 107 33.539a12 12 0 0 1-3.194 4.614 15.115 15.115 0 0 1-4.436 3.017 11.908 11.908 0 0 1-4.969 1.065m18.633-.532h6.033V13.486h-6.033zm10.647-28.215h4.791V3.9l6.037-3.368v12.954h6.033v5.324h-6.033v11.357a14.4 14.4 0 0 0 .177 3.017 2.836 2.836 0 0 0 .887 1.775 4.161 4.161 0 0 0 1.775.887 14.4 14.4 0 0 0 3.017.177V41.7h-.887a22.4 22.4 0 0 1-5.324-.532 7.082 7.082 0 0 1-3.372-1.952 7.468 7.468 0 0 1-1.775-3.549 24.028 24.028 0 0 1-.532-5.5v-11.18h-4.791zm34.6 23.246a7.945 7.945 0 0 0 3.549-.71 10.142 10.142 0 0 0 2.839-1.952 9.534 9.534 0 0 0 1.775-2.839 7.945 7.945 0 0 0 .71-3.549 7.945 7.945 0 0 0-.71-3.549 11.078 11.078 0 0 0-1.775-2.839 11.441 11.441 0 0 0-2.839-1.952 9.228 9.228 0 0 0-7.1 0 9.461 9.461 0 0 0-4.791 4.791 7.945 7.945 0 0 0-.71 3.549 7.945 7.945 0 0 0 .71 3.549 10.985 10.985 0 0 0 1.952 3.017 10.142 10.142 0 0 0 2.839 1.952 11.442 11.442 0 0 0 3.549.532m-.887 5.5a12.729 12.729 0 0 1-5.146-1.065 12.343 12.343 0 0 1-4.436-3.017 17.741 17.741 0 0 1-3.194-4.614 16.629 16.629 0 0 1-1.242-6.033 13.115 13.115 0 0 1 1.242-6.033 13.878 13.878 0 0 1 3.017-4.614 15.115 15.115 0 0 1 4.436-3.017 14.241 14.241 0 0 1 5.324-1.065 12.965 12.965 0 0 1 5.324 1.065 11.669 11.669 0 0 1 4.081 3.017v-3.372h6.033V41.7h-6.033v-3.9a10.259 10.259 0 0 1-4.081 3.194 10.717 10.717 0 0 1-5.324 1.242M178.7 41.7h6.033V.532H178.7zM211 23.777v6.033h12.422v12.424h6.033V23.779zm0 12.422a11.407 11.407 0 0 1-5.5-1.242 17.4 17.4 0 0 1-4.791-3.194 17.4 17.4 0 0 1-3.194-4.791 15.631 15.631 0 0 1-1.065-5.856 15.631 15.631 0 0 1 1.065-5.856 12.642 12.642 0 0 1 3.185-4.79 17.4 17.4 0 0 1 4.791-3.194 15.688 15.688 0 0 1 5.856-1.242 13.3 13.3 0 0 1 7.63 2.129 15.854 15.854 0 0 1 5.146 5.678l5.324-3.372a15.542 15.542 0 0 0-3.372-4.259 19.1 19.1 0 0 0-4.259-3.194 24.664 24.664 0 0 0-4.968-2.129 19.938 19.938 0 0 0-5.678-.71 21.812 21.812 0 0 0-8.34 1.6 21.2 21.2 0 0 0-6.743 4.436 19.406 19.406 0 0 0-4.436 6.743 21.176 21.176 0 0 0-1.6 8.34 20.3 20.3 0 0 0 1.6 8.163 21.2 21.2 0 0 0 4.436 6.743 22.733 22.733 0 0 0 6.743 4.614 20.056 20.056 0 0 0 7.985 1.6V36.2z" style="fill:#818181"/>
</svg>
