<svg data-name="consumer-reports-logo@logotyp.us" xmlns="http://www.w3.org/2000/svg" width="258.009" height="65.729" viewBox="0 0 258.009 65.729">
    <path data-name="Path 25" d="M51.711 60.67h14.8V42.336h4.374L81.57 60.67h17.117L85.678 39.521a19.29 19.29 0 0 0-8.863-36.44h-25.1v7.493a29.944 29.944 0 0 0-20.583-8.292 29.612 29.612 0 1 0 .038 59.225 29.944 29.944 0 0 0 20.578-8.292v7.455zM41.669 42.336a14.8 14.8 0 1 1 0-20.845l10.042-10.042v40.929zM66.507 29.4V16.014h8.064a6.695 6.695 0 1 1 0 13.389z" transform="translate(-1.539 -2.282)" style="fill:#818181"/>
    <g data-name="Group 22">
        <path data-name="Path 26" d="m289.348 72.775-1.1 1.522a9.964 9.964 0 0 0 6.809 2.472c3.385 0 6.086-1.826 6.086-5.059 0-2.549-1.255-3.652-5.249-5.021l-1.522-.533c-2.244-.761-3.461-1.483-3.461-3.157 0-2.054 1.9-2.853 3.69-2.853a7.784 7.784 0 0 1 4.789 2.054l1.179-1.6a8.982 8.982 0 0 0-5.972-2.168c-3.081 0-5.592 1.636-5.592 4.679 0 2.32 1.407 3.8 4.793 4.983l1.712.609c2.549.913 3.728 1.407 3.728 3 0 2.32-2.016 3.347-4.184 3.347a8.493 8.493 0 0 1-5.706-2.282" transform="translate(-82.765 -18.19)" style="fill:#818181"/>
        <path data-name="Path 27" d="m283.262 73.184-.533-1.56a6.115 6.115 0 0 1-3.347.951c-1.75 0-2.587-1.065-2.587-2.967v-11.6h6.314v-1.827H276.8v-6.238h-1.978v19.665c0 2.967 1.483 4.755 4.45 4.755a7.332 7.332 0 0 0 3.994-1.179" transform="translate(-78.961 -15.785)" style="fill:#818181"/>
        <path data-name="Path 28" d="M261.259 76.6V65.949a6.065 6.065 0 0 1 7.151-5.477v-2.016a6.842 6.842 0 0 0-7.151 3.69l-.038-3.576h-1.9V76.6z" transform="translate(-74.57 -18.174)" style="fill:#818181"/>
        <path data-name="Path 29" d="M239.721 58.381a9.205 9.205 0 1 0 9.205 9.205 9.2 9.2 0 0 0-9.205-9.205zm0 16.432a7.265 7.265 0 1 1 7.265-7.265 7.256 7.256 0 0 1-7.265 7.266z" transform="translate(-66.421 -18.175)" style="fill:#818181"/>
        <path data-name="Path 30" d="M211.781 58.381a8.313 8.313 0 0 0-7.151 4.184v-3.993h-1.94V83.9h1.94V72.569a8.487 8.487 0 0 0 7.265 4.222 9.207 9.207 0 0 0-.114-18.41zm0 16.432a7.266 7.266 0 1 1 7.151-7.265 7.216 7.216 0 0 1-7.151 7.266z" transform="translate(-58.527 -18.175)" style="fill:#818181"/>
        <path data-name="Path 31" d="M192.935 66.788a8.1 8.1 0 0 0-8.254-8.406c-4.679 0-8.635 3.728-8.635 9.129a9.087 9.087 0 0 0 8.977 9.281 8.831 8.831 0 0 0 7.113-3.423l-1.407-1.179a6.828 6.828 0 0 1-5.706 2.739 7.077 7.077 0 0 1-7-6.885h14.911zm-14.873-.533a6.715 6.715 0 0 1 6.581-6.086 6.236 6.236 0 0 1 6.276 6.086z" transform="translate(-50.978 -18.175)" style="fill:#818181"/>
        <path data-name="Path 32" d="M161.66 62.459c4.412-.685 7.037-3.88 7.037-7.608 0-4.45-3.043-7.722-8.6-7.722h-8.787v26.285h2.054v-10.8h5.858l7.417 10.8h2.51zm-8.292-1.826V49.07h6.695c4.146 0 6.542 2.32 6.542 5.782 0 3.081-2.092 5.782-6.619 5.782z" transform="translate(-43.971 -14.988)" style="fill:#818181"/>
        <path data-name="Path 33" d="M350.8 32.973V22.322a6.065 6.065 0 0 1 7.151-5.477v-2.016a6.842 6.842 0 0 0-7.151 3.69l-.038-3.576h-1.9v18.03z" transform="translate(-99.937 -5.814)" style="fill:#818181"/>
        <path data-name="Path 34" d="M339.048 23.161a8.1 8.1 0 0 0-8.254-8.406c-4.679 0-8.635 3.728-8.635 9.129a9.087 9.087 0 0 0 8.977 9.281 8.831 8.831 0 0 0 7.113-3.423l-1.407-1.179a6.828 6.828 0 0 1-5.706 2.739 7.077 7.077 0 0 1-7-6.885h14.911zm-14.873-.533a6.715 6.715 0 0 1 6.581-6.086 6.236 6.236 0 0 1 6.276 6.086z" transform="translate(-92.374 -5.815)" style="fill:#818181"/>
        <path data-name="Path 35" d="M283.574 23.792c.076-4.755 2.472-7.265 5.82-7.265 2.815 0 4.679 1.788 4.641 5.021v11.374h1.94v-9.13c.076-4.755 2.472-7.265 5.82-7.265 2.815 0 4.679 1.788 4.641 5.021v11.374h1.94v-11.45c.038-4.222-2.32-6.771-6.39-6.771a6.839 6.839 0 0 0-6.39 4.3 5.905 5.905 0 0 0-6.048-4.3 6.636 6.636 0 0 0-6.048 3.8v-3.609h-1.94v18.03h1.94v-9.13z" transform="translate(-80.871 -5.8)" style="fill:#818181"/>
        <path data-name="Path 36" d="M269.7 33.012h1.94V15.02h-1.94v9.167c-.076 4.755-2.7 7.265-6.352 7.265-2.891 0-4.793-1.788-4.793-5.021V15.02h-1.94v11.449c0 4.222 2.4 6.771 6.542 6.771a7.109 7.109 0 0 0 6.581-3.994v3.766z" transform="translate(-73.804 -5.891)" style="fill:#818181"/>
        <path data-name="Path 37" d="m236.592 29.148-1.1 1.522a9.964 9.964 0 0 0 6.809 2.472c3.385 0 6.086-1.826 6.086-5.059 0-2.549-1.255-3.652-5.249-5.021l-1.521-.533c-2.244-.761-3.461-1.483-3.461-3.157 0-2.054 1.9-2.853 3.69-2.853a7.784 7.784 0 0 1 4.793 2.054l1.179-1.6a8.982 8.982 0 0 0-5.972-2.168c-3.081 0-5.592 1.636-5.592 4.679 0 2.32 1.407 3.8 4.793 4.983l1.712.609c2.549.913 3.728 1.407 3.728 3 0 2.32-2.016 3.347-4.184 3.347a8.493 8.493 0 0 1-5.706-2.282" transform="translate(-67.819 -5.83)" style="fill:#818181"/>
        <path data-name="Path 38" d="M213.637 23.792c.076-4.755 2.7-7.265 6.352-7.265 2.891 0 4.793 1.788 4.793 5.021v11.374h1.94v-11.45c0-4.222-2.4-6.771-6.542-6.771a7.109 7.109 0 0 0-6.58 3.999v-3.8h-1.94v18.03h1.94v-9.138z" transform="translate(-61.068 -5.8)" style="fill:#818181"/>
        <path data-name="Path 39" d="M192.166 14.755a9.205 9.205 0 1 0 9.205 9.205 9.2 9.2 0 0 0-9.205-9.205zm0 16.432a7.265 7.265 0 1 1 7.265-7.265 7.256 7.256 0 0 1-7.265 7.265z" transform="translate(-52.948 -5.815)" style="fill:#818181"/>
        <path data-name="Path 40" d="M170.063 23.451a11.225 11.225 0 1 1-8.9-18.068 10.957 10.957 0 0 1 8.9 4.374l1.56-1.522a13.584 13.584 0 0 0-10.46-4.945 13.332 13.332 0 1 0 0 26.664 13.229 13.229 0 0 0 10.384-4.983z" transform="translate(-42.979 -2.568)" style="fill:#818181"/>
    </g>
    <g data-name="Group 23">
        <path data-name="Path 41" d="M304.846 51.642h-1.1v-.266h2.472v.266h-1.1v3.233h-.266z" transform="translate(-87.157 -16.191)" style="fill:#818181"/>
        <path data-name="Path 42" d="M311.457 51.376v3.5h-.266v-2.968l-1.291 2.206h-.19l-1.293-2.206v2.967h-.266v-3.5h.266l1.407 2.434 1.407-2.434z" transform="translate(-88.405 -16.191)" style="fill:#818181"/>
    </g>
</svg>
