<svg data-name="lending-club-logo@logotyp.us" xmlns="http://www.w3.org/2000/svg" width="348.948" height="50.252" viewBox="0 0 348.948 50.252">
    <path data-name="Path 12" d="M57.374 204.518h-6.613a.357.357 0 0 1-.358-.355v-6.528a.357.357 0 0 1 .358-.355h6.613a.357.357 0 0 1 .358.355v6.528a.357.357 0 0 1-.358.355zm-10.4 0h-6.616a.357.357 0 0 1-.358-.355v-6.528a.357.357 0 0 1 .358-.355h6.613a.357.357 0 0 1 .358.355v6.528a.357.357 0 0 1-.357.355zm20.805 0h-6.615a.357.357 0 0 1-.358-.355v-6.528a.357.357 0 0 1 .358-.355h6.613a.357.357 0 0 1 .358.355v6.528a.357.357 0 0 1-.358.355zm10.4 0h-6.61a.355.355 0 0 1-.358-.353v-6.529a.357.357 0 0 1 .358-.355h6.61a.36.36 0 0 1 .361.355v6.529a.357.357 0 0 1-.362.351zm-20.8-10.271h-6.617a.355.355 0 0 1-.358-.353v-6.529a.357.357 0 0 1 .358-.355h6.611a.359.359 0 0 1 .361.355v6.529a.357.357 0 0 1-.361.353zm20.8 0h-6.61a.355.355 0 0 1-.358-.353v-6.529a.357.357 0 0 1 .358-.355h6.61a.36.36 0 0 1 .361.355v6.529a.357.357 0 0 1-.362.351zm-10.4 0h-6.615a.354.354 0 0 1-.358-.353v-6.529a.356.356 0 0 1 .358-.355h6.611a.359.359 0 0 1 .361.355v6.529a.357.357 0 0 1-.36.351zm-20.805 0h-6.615a.354.354 0 0 1-.358-.353v-6.529a.356.356 0 0 1 .358-.355h6.611a.359.359 0 0 1 .361.355v6.529a.357.357 0 0 1-.361.353zm31.208-10.271h-6.61a.355.355 0 0 1-.358-.353v-6.528a.357.357 0 0 1 .358-.355h6.61a.359.359 0 0 1 .361.355v6.528a.357.357 0 0 1-.365.35zm-10.4 0h-6.618a.354.354 0 0 1-.358-.353v-6.528a.356.356 0 0 1 .358-.355h6.611a.359.359 0 0 1 .361.355v6.528a.357.357 0 0 1-.36.35zm-20.805 0h-6.618a.354.354 0 0 1-.359-.356v-6.528a.356.356 0 0 1 .358-.355h6.612a.359.359 0 0 1 .361.355v6.528a.357.357 0 0 1-.361.353zM78.178 173.7h-6.61a.355.355 0 0 1-.358-.353v-6.529a.357.357 0 0 1 .358-.355h6.61a.36.36 0 0 1 .361.355v6.529a.357.357 0 0 1-.361.353zm-20.8 0h-6.616a.355.355 0 0 1-.358-.353v-6.529a.357.357 0 0 1 .358-.355h6.611a.359.359 0 0 1 .361.355v6.529a.357.357 0 0 1-.361.353zm10.4 0h-6.614a.354.354 0 0 1-.358-.353v-6.529a.356.356 0 0 1 .358-.355h6.611a.359.359 0 0 1 .361.355v6.529a.357.357 0 0 1-.36.353zm-20.805 0h-6.614a.354.354 0 0 1-.358-.353v-6.529a.356.356 0 0 1 .358-.355h6.611a.359.359 0 0 1 .361.355v6.529a.357.357 0 0 1-.361.353z" transform="translate(-40 -165.718)" style="fill:#818181"/>
    <g data-name="Group 21">
        <path data-name="Path 13" d="M111.907 166.464H119a.357.357 0 0 1 .358.355v31.257h16.909a.357.357 0 0 1 .358.356v5.729a.357.357 0 0 1-.358.356h-24.36a.357.357 0 0 1-.358-.356v-37.342a.356.356 0 0 1 .358-.355z" transform="translate(-59.535 -165.718)" style="fill:#818181"/>
        <path data-name="Path 14" d="M155.689 191.251h12.29c-.217-3.46-2.533-6.093-5.874-6.093-3.883 0-5.769 2.527-6.416 6.093zm-7.33 2.927c0-8.09 5.553-14.608 13.637-14.608 8.783 0 13.518 6.778 13.634 16.321a.363.363 0 0 1-.363.363h-19.686c.542 4.2 2.912 7.052 7.062 7.052 2.755 0 4.406-1.188 5.246-3.135a.36.36 0 0 1 .33-.219h6.528a.358.358 0 0 1 .353.438c-1.19 4.65-5.5 8.5-12.4 8.5-9.164 0-14.338-6.573-14.338-14.717z" transform="translate(-69.585 -169.296)" style="fill:#818181"/>
        <path data-name="Path 15" d="M198.11 184.039a9.268 9.268 0 0 1 8.355-4.47c5.713 0 9.541 4.256 9.541 10.218v17.953a.359.359 0 0 1-.361.355h-6.611a.359.359 0 0 1-.361-.355v-16.888c0-2.927-1.724-5-4.8-5-3.234 0-5.6 2.556-5.6 6.282v15.61a.359.359 0 0 1-.361.355H191.3a.356.356 0 0 1-.358-.355V180.67a.356.356 0 0 1 .358-.355h6.452a.357.357 0 0 1 .358.355z" transform="translate(-81.211 -169.296)" style="fill:#818181"/>
        <path data-name="Path 16" d="M250.428 190.766c0-5.215-1.727-8.969-6.416-8.969-4.043 0-6.091 3.754-6.091 8.809 0 5.269 2.1 8.6 5.874 8.6 4.368-.006 6.633-3.437 6.633-8.44zm-19.945-.16c0-8.515 4.906-14.662 11.805-14.662a9.088 9.088 0 0 1 7.976 4.045v-13.217a.357.357 0 0 1 .358-.355h6.611c.2 0 .361.159.361-.124v37.345c0 .675-.159.832-.361.832h-6.341a.357.357 0 0 1-.361-.355V200.9a9.411 9.411 0 0 1-8.353 4.364c-6.951.004-11.695-5.823-11.695-14.658z" transform="translate(-92.007 -165.671)" style="fill:#818181"/>
        <path data-name="Path 17" d="M274.7 180.594h6.611a.359.359 0 0 1 .361.355v27.07a.359.359 0 0 1-.361.355H274.7a.357.357 0 0 1-.358-.355v-27.07a.357.357 0 0 1 .358-.355z" transform="translate(-103.981 -169.576)" style="fill:#818181"/>
        <path data-name="Path 18" d="M298.116 184.039a9.269 9.269 0 0 1 8.355-4.47c5.712 0 9.54 4.256 9.54 10.218v17.953a.359.359 0 0 1-.361.355h-6.611a.359.359 0 0 1-.361-.355v-16.888c0-2.927-1.724-5-4.8-5-3.234 0-5.6 2.556-5.6 6.282v15.61a.359.359 0 0 1-.361.355h-6.611a.357.357 0 0 1-.358-.355V180.67a.357.357 0 0 1 .358-.355h6.451a.357.357 0 0 1 .358.355z" transform="translate(-108.515 -169.296)" style="fill:#818181"/>
        <path data-name="Path 19" d="M372.454 185.343c0-11.282 7.116-19.905 18.488-19.905 9.309 0 14.882 5.382 15.85 12.426a.361.361 0 0 1-.361.4h-7.06a.358.358 0 0 1-.347-.286c-.791-3.671-3.669-6.049-8.083-6.049-7.116 0-10.511 5.856-10.511 13.413 0 7.771 4.1 13.359 10.566 13.359 4.462 0 7.649-2.576 8.257-6.4a.358.358 0 0 1 .353-.3h6.951a.357.357 0 0 1 .361.386 13.388 13.388 0 0 1-4.228 8.608c-2.641 2.448-6.359 4.045-11.694 4.045-10.833-.005-18.542-8.255-18.542-19.697z" transform="translate(-130.768 -165.438)" style="fill:#818181"/>
        <path data-name="Path 20" d="M425.828 166.464h6.611a.359.359 0 0 1 .361.355v37.343a.359.359 0 0 1-.361.356h-6.611a.357.357 0 0 1-.358-.356v-37.343a.357.357 0 0 1 .358-.355z" transform="translate(-145.243 -165.718)" style="fill:#818181"/>
        <path data-name="Path 21" d="M460.153 208.375a.357.357 0 0 1-.358-.356v-2.837a9.2 9.2 0 0 1-8.088 3.937c-6.145 0-9.592-3.886-9.592-9.845v-18.325a.357.357 0 0 1 .358-.355h6.557a.359.359 0 0 1 .361.355v17.1c0 3.192 1.455 4.949 4.581 4.949 3.449 0 5.552-2.556 5.552-6.176v-15.873a.357.357 0 0 1 .358-.355h6.618a.357.357 0 0 1 .358.355v27.07a.357.357 0 0 1-.358.356z" transform="translate(-149.788 -169.576)" style="fill:#818181"/>
        <path data-name="Path 22" d="M502.379 190.607c0-5.058-2.048-8.809-6.144-8.809-4.635 0-6.359 3.911-6.359 8.968 0 5 2.533 8.436 6.629 8.436 3.772-.002 5.874-3.327 5.874-8.595zm-12.612 10.458v3.05a.356.356 0 0 1-.358.355h-6.344c-.2 0-.361-.16-.361-.835v-37.342c0 .284.162.124.361.124h6.611a.359.359 0 0 1 .361.355v13.217a8.958 8.958 0 0 1 7.869-4.045c6.953 0 11.911 6.147 11.911 14.662 0 8.834-4.744 14.662-11.694 14.662a9.417 9.417 0 0 1-8.356-4.2z" transform="translate(-160.87 -165.671)" style="fill:#818181"/>
    </g>
    <path data-name="Path 23" d="M274.7 166.464h6.611a.359.359 0 0 1 .361.355v6.529a.357.357 0 0 1-.361.353H274.7a.355.355 0 0 1-.358-.353v-6.529a.357.357 0 0 1 .358-.355z" transform="translate(-103.981 -165.718)" style="fill:#818181"/>
    <path data-name="Path 24" d="M343.771 202.028c-3.9 0-5.843-3.4-5.843-8.206 0-5.011 2-8.4 5.588-8.4 3.9 0 6.307 3.489 6.307 8.248 0 4.811-1.641 8.358-6.052 8.358zm13.184-21.714h-6.343a.357.357 0 0 0-.358.355v3.1a9.417 9.417 0 0 0-8.355-4.2c-6.954 0-11.408 6.253-11.408 14.66 0 8.224 4.671 13.866 11.624 13.866a8.962 8.962 0 0 0 7.977-4.218v4.493c0 3.726-1.994 5.694-6.145 5.694-3.241 0-4.813-1.5-5.465-3.089a.362.362 0 0 0-.332-.229h-6.606a.361.361 0 0 0-.358.417c.933 5.07 5.521 8.383 12.869 8.383 4.1 0 7.654-.958 9.97-3.087 2.049-1.863 3.288-4.472 3.288-8.3V180.67a.357.357 0 0 0-.358-.355z" transform="translate(-119.311 -169.296)" style="fill:#818181"/>
</svg>
