<svg data-name="zillow-logo@logotyp.us" xmlns="http://www.w3.org/2000/svg" width="224.695" height="46.921" viewBox="0 0 224.695 46.921">
    <path data-name="Path 10" d="M120.313 33.449c0-8.682 7-15.111 15.567-15.111 8.483 0 15.486 6.429 15.486 15.111a15.146 15.146 0 0 1-15.486 15.145c-8.564-.011-15.567-6.44-15.567-15.145zM67.437 8.015v1.76a2.02 2.02 0 0 1-.269 1.126L50.59 39.127a.071.071 0 0 0 .06.117H68.3v8.4H36.512V46A2.533 2.533 0 0 1 37 44.4l16.39-27.841c.034-.058.011-.117-.06-.117H37.015V8.015zm102.148 39.619h-8.492l-9.234-28.568h9.127l2.641 8.647c.879 2.863 2.357 8.236 2.357 8.236a.067.067 0 0 0 .128 0s1.525-5.48 2.4-8.236l2.769-8.647h6.734l2.722 8.647c.915 2.956 2.346 8.236 2.346 8.236.022.07.1.07.141 0 0 0 1.478-5.339 2.357-8.236l2.641-8.647h8.478l-9.174 28.568h-8.34l-2.276-7.18c-.87-2.816-2.406-8.283-2.406-8.283a.065.065 0 0 0-.128 0s-1.538 5.361-2.464 8.236zm-86.157 0h-9.234V19.066h9.234zm7-43.668h9.234v43.668h-9.231zm16.073 0h9.234v43.668H106.5zm36.009 29.483c0-4.247-3.039-7.146-6.629-7.146-3.671 0-6.711 2.9-6.711 7.146 0 4.283 3.039 7.144 6.711 7.144 3.589.002 6.629-2.861 6.629-7.144zm58.79-21.234a3.449 3.449 0 1 0 3.449 3.449 3.455 3.455 0 0 0-3.449-3.449zm0 6.231a2.78 2.78 0 1 1 2.781-2.781 2.78 2.78 0 0 1-2.781 2.78zm.2-4.846a1.408 1.408 0 0 1 .527 2.7l.787 1.291h-.751l-.729-1.2h-.644v1.2h-.657V13.6zm-.036.587h-.774V15.8h.774a.812.812 0 0 0 0-1.619zM78.806 4.753a5.241 5.241 0 0 1 5.256 5.185 5.256 5.256 0 0 1-10.512 0 5.238 5.238 0 0 1 5.256-5.185z" transform="translate(19.949 -1.673)" style="fill:#818181"/>
    <path data-name="Path 11" d="M11.377 41.18a.348.348 0 0 1-.46-.071l-3.934-4.687c-.105-.13-.118-.2.024-.4 3.04-4.452 9.246-11.39 13.2-14.322.071-.047.047-.107-.036-.071A174.1 174.1 0 0 0 0 30.463v15.921h42.177V31.052c-5.748.977-22.967 6.1-30.8 10.129zm17.149-28.643a.389.389 0 0 1 .435.165c.73.812 3.064 3.662 3.7 4.439a.262.262 0 0 1-.058.377 84.143 84.143 0 0 0-12.874 12.6c-.058.083-.011.083.036.071a146.434 146.434 0 0 1 22.425-6.666v-6.817L21.118.04.013 16.694v7.454c6.536-3.885 21.658-9.9 28.513-11.611z" transform="translate(0 -.04)" style="fill:#818181"/>
</svg>
