<svg xmlns="http://www.w3.org/2000/svg" width="26.675" height="26.676" viewBox="0 0 26.675 26.676">
    <path data-name="Icon metro-instagram" d="M24.817 1.928H7a4.441 4.441 0 0 0-4.429 4.428v17.818A4.441 4.441 0 0 0 7 28.6h17.817a4.441 4.441 0 0 0 4.428-4.428V6.356a4.441 4.441 0 0 0-4.428-4.428zM11.11 13.6h9.6a5.08 5.08 0 1 1-9.6 0zm14.8 0v10a1.672 1.672 0 0 1-1.667 1.667H7.572A1.672 1.672 0 0 1 5.905 23.6v-10h2.608a7.58 7.58 0 1 0 14.79 0h2.608zm0-5.836a.836.836 0 0 1-.834.834H23.41a.836.836 0 0 1-.834-.834V6.1a.836.836 0 0 1 .834-.834h1.667a.836.836 0 0 1 .834.834z" transform="translate(-2.571 -1.928)" style="fill:#fff"/>
</svg>
