<svg xmlns="http://www.w3.org/2000/svg" width="314" height="87" viewBox="0 0 314 87">
    <g data-name="Group 17">
        <text data-name="the Sentinal Consortium" transform="translate(121 34)" style="fill:#f4f5f7;font-size:32px;font-family:Poppins-SemiBold,Poppins;font-weight:600"><tspan x="0" y="0">the sentinal</tspan><tspan x="0" y="42">consortium</tspan></text>
        <g data-name="logoipsum-logo-15 (1)">
            <path data-name="Path 1" d="M43.919 22.46a20.96 20.96 0 0 1-20.96 20.96H2V22.46a20.96 20.96 0 0 1 41.919 0z" style="fill:#fff" transform="translate(-2 1.581)"/>
            <path data-name="Path 2" d="M24.5 44.96A20.96 20.96 0 0 1 45.46 24h20.96v20.96a20.96 20.96 0 0 1-41.919 0z" transform="translate(17.419 21)" style="fill:#fff"/>
            <path data-name="Path 3" d="M2 44.96a20.96 20.96 0 0 0 20.96 20.96h20.96V44.96a20.96 20.96 0 1 0-41.92 0z" transform="translate(-2 21)" style="fill:#fff"/>
            <path data-name="Path 4" d="M66.419 22.46A20.96 20.96 0 0 0 45.46 1.5H24.5v20.96a20.96 20.96 0 0 0 41.919 0z" transform="translate(17.419 1.581)" style="fill:#fff"/>
        </g>
    </g>
</svg>
