<svg xmlns="http://www.w3.org/2000/svg" width="202" height="57.192" viewBox="0 0 202 57.192">
  <g id="Group_16" data-name="Group 16" transform="translate(-141 -73.081)">
    <path id="Path_73" data-name="Path 73" d="M5.319-17.557v5.85a1.156,1.156,0,0,0,.295.884,1.448,1.448,0,0,0,.993.273H8.026v2.576H6.1q-3.864,0-3.864-3.755v-5.828H.8v-2.51H2.241v-2.991H5.319v2.991H8.026v2.51Zm11.722-2.685a4.909,4.909,0,0,1,2.445.6,4.136,4.136,0,0,1,1.67,1.768,6.07,6.07,0,0,1,.6,2.805v7.095H18.7v-6.68a3.136,3.136,0,0,0-.72-2.216,2.551,2.551,0,0,0-1.965-.775,2.614,2.614,0,0,0-2,.775,3.106,3.106,0,0,0-.731,2.216v6.68H10.23V-24.127h3.056v5.567a3.984,3.984,0,0,1,1.572-1.233A5.2,5.2,0,0,1,17.041-20.242ZM35.9-14.282a7.212,7.212,0,0,1-.087,1.179H26.974a3.007,3.007,0,0,0,.917,2.052,2.827,2.827,0,0,0,1.986.742A2.5,2.5,0,0,0,32.3-11.772h3.3A5.509,5.509,0,0,1,33.588-8.9a5.863,5.863,0,0,1-3.646,1.124,6.309,6.309,0,0,1-3.133-.775,5.454,5.454,0,0,1-2.161-2.194,6.722,6.722,0,0,1-.775-3.274,6.847,6.847,0,0,1,.764-3.3A5.331,5.331,0,0,1,26.777-19.5a6.409,6.409,0,0,1,3.165-.764,6.358,6.358,0,0,1,3.089.742,5.224,5.224,0,0,1,2.117,2.107A6.375,6.375,0,0,1,35.9-14.282Zm-3.165-.873a2.424,2.424,0,0,0-.851-1.888,3.016,3.016,0,0,0-2.03-.709,2.774,2.774,0,0,0-1.91.688,3.023,3.023,0,0,0-.95,1.91ZM47.952-7.777a6.377,6.377,0,0,1-2.663-.535,4.706,4.706,0,0,1-1.866-1.452,3.679,3.679,0,0,1-.753-2.03h3.078a1.677,1.677,0,0,0,.688,1.157,2.392,2.392,0,0,0,1.5.458,2.322,2.322,0,0,0,1.364-.349,1.057,1.057,0,0,0,.491-.9.944.944,0,0,0-.6-.884,11.3,11.3,0,0,0-1.91-.644,16.187,16.187,0,0,1-2.216-.677,3.847,3.847,0,0,1-1.484-1.07,2.871,2.871,0,0,1-.622-1.943,3.135,3.135,0,0,1,.578-1.834,3.884,3.884,0,0,1,1.659-1.31,6.219,6.219,0,0,1,2.543-.48,5.193,5.193,0,0,1,3.449,1.081A4,4,0,0,1,52.6-16.269H49.676a1.583,1.583,0,0,0-.6-1.146,2.231,2.231,0,0,0-1.43-.426,2.253,2.253,0,0,0-1.277.306.974.974,0,0,0-.448.851,1,1,0,0,0,.611.928,9.492,9.492,0,0,0,1.9.644,16.121,16.121,0,0,1,2.161.677,3.818,3.818,0,0,1,1.473,1.081,2.967,2.967,0,0,1,.644,1.932,3.2,3.2,0,0,1-.578,1.877,3.811,3.811,0,0,1-1.659,1.3A6.286,6.286,0,0,1,47.952-7.777Zm18.511-6.505a7.214,7.214,0,0,1-.087,1.179H57.535a3.007,3.007,0,0,0,.917,2.052,2.827,2.827,0,0,0,1.986.742,2.5,2.5,0,0,0,2.423-1.463h3.3A5.509,5.509,0,0,1,64.149-8.9,5.863,5.863,0,0,1,60.5-7.777a6.309,6.309,0,0,1-3.133-.775,5.454,5.454,0,0,1-2.161-2.194,6.722,6.722,0,0,1-.775-3.274,6.847,6.847,0,0,1,.764-3.3A5.331,5.331,0,0,1,57.339-19.5a6.409,6.409,0,0,1,3.165-.764,6.358,6.358,0,0,1,3.089.742,5.224,5.224,0,0,1,2.117,2.107A6.375,6.375,0,0,1,66.463-14.282ZM63.3-15.156a2.424,2.424,0,0,0-.851-1.888,3.016,3.016,0,0,0-2.03-.709,2.774,2.774,0,0,0-1.91.688,3.023,3.023,0,0,0-.95,1.91Zm12.094-5.086a4.661,4.661,0,0,1,3.493,1.364,5.223,5.223,0,0,1,1.332,3.809v7.095H77.16v-6.68a3.136,3.136,0,0,0-.72-2.216,2.551,2.551,0,0,0-1.965-.775,2.614,2.614,0,0,0-2,.775,3.106,3.106,0,0,0-.731,2.216v6.68H68.69V-20.067h3.056v1.506a4.222,4.222,0,0,1,1.561-1.233A4.828,4.828,0,0,1,75.392-20.242Zm11.286,2.685v5.85a1.156,1.156,0,0,0,.295.884,1.448,1.448,0,0,0,.993.273h1.419v2.576H87.463q-3.864,0-3.864-3.755v-5.828H82.159v-2.51H83.6v-2.991h3.078v2.991h2.707v2.51Zm6.462-3.951a1.862,1.862,0,0,1-1.343-.513,1.7,1.7,0,0,1-.535-1.277,1.7,1.7,0,0,1,.535-1.277,1.862,1.862,0,0,1,1.343-.513,1.862,1.862,0,0,1,1.343.513,1.7,1.7,0,0,1,.535,1.277,1.7,1.7,0,0,1-.535,1.277A1.862,1.862,0,0,1,93.139-21.508Zm1.506,1.441V-7.974H91.589V-20.067Zm9.714-.175a4.661,4.661,0,0,1,3.493,1.364,5.223,5.223,0,0,1,1.332,3.809v7.095h-3.056v-6.68a3.136,3.136,0,0,0-.72-2.216,2.551,2.551,0,0,0-1.965-.775,2.614,2.614,0,0,0-2,.775,3.106,3.106,0,0,0-.731,2.216v6.68H97.658V-20.067h3.056v1.506a4.222,4.222,0,0,1,1.561-1.233A4.828,4.828,0,0,1,104.36-20.242Zm6.942,6.178a7,7,0,0,1,.731-3.253,5.36,5.36,0,0,1,1.986-2.183,5.289,5.289,0,0,1,2.805-.764,4.927,4.927,0,0,1,2.368.546,4.806,4.806,0,0,1,1.626,1.375v-1.725H123.9V-7.974h-3.078V-9.742a4.546,4.546,0,0,1-1.626,1.408,4.976,4.976,0,0,1-2.39.557,5.139,5.139,0,0,1-2.783-.786,5.5,5.5,0,0,1-1.986-2.216A7.116,7.116,0,0,1,111.3-14.064Zm9.518.044a3.92,3.92,0,0,0-.437-1.91,3.078,3.078,0,0,0-1.179-1.222,3.151,3.151,0,0,0-1.594-.426,3.1,3.1,0,0,0-1.572.415,3.123,3.123,0,0,0-1.168,1.212,3.8,3.8,0,0,0-.448,1.888,3.92,3.92,0,0,0,.448,1.91,3.222,3.222,0,0,0,1.179,1.255,2.994,2.994,0,0,0,1.561.437,3.151,3.151,0,0,0,1.594-.426,3.078,3.078,0,0,0,1.179-1.222A3.92,3.92,0,0,0,120.819-14.02Zm9.125-10.107V-7.974h-3.056V-24.127ZM.975,14.631a6.784,6.784,0,0,1,.764-3.285A5.461,5.461,0,0,1,3.856,9.163a6.127,6.127,0,0,1,3.1-.775,5.96,5.96,0,0,1,3.722,1.124,5.468,5.468,0,0,1,1.976,3.154h-3.3a2.411,2.411,0,0,0-.884-1.233,2.567,2.567,0,0,0-1.539-.448,2.52,2.52,0,0,0-2.074.95,4.2,4.2,0,0,0-.764,2.7,4.164,4.164,0,0,0,.764,2.674,2.52,2.52,0,0,0,2.074.95A2.318,2.318,0,0,0,9.357,16.6h3.3a5.578,5.578,0,0,1-1.986,3.122,5.854,5.854,0,0,1-3.711,1.157,6.127,6.127,0,0,1-3.1-.775,5.461,5.461,0,0,1-2.117-2.183A6.784,6.784,0,0,1,.975,14.631Zm19.3,6.243a6.37,6.37,0,0,1-3.143-.775,5.58,5.58,0,0,1-2.194-2.194,6.574,6.574,0,0,1-.8-3.274,6.434,6.434,0,0,1,.819-3.274,5.689,5.689,0,0,1,2.238-2.194,6.852,6.852,0,0,1,6.331,0,5.689,5.689,0,0,1,2.238,2.194,6.434,6.434,0,0,1,.819,3.274,6.3,6.3,0,0,1-.84,3.274A5.82,5.82,0,0,1,23.47,20.1,6.6,6.6,0,0,1,20.272,20.874Zm0-2.663a3.179,3.179,0,0,0,1.561-.4A2.935,2.935,0,0,0,23,16.6a4.083,4.083,0,0,0,.437-1.965,3.64,3.64,0,0,0-.906-2.652,2.978,2.978,0,0,0-2.216-.928,2.908,2.908,0,0,0-2.194.928,3.7,3.7,0,0,0-.884,2.652,3.754,3.754,0,0,0,.862,2.652A2.839,2.839,0,0,0,20.272,18.211Zm15.259-9.8a4.661,4.661,0,0,1,3.493,1.364,5.223,5.223,0,0,1,1.332,3.809v7.095H37.3V14a3.136,3.136,0,0,0-.72-2.216,2.551,2.551,0,0,0-1.965-.775,2.614,2.614,0,0,0-2,.775A3.106,3.106,0,0,0,31.885,14v6.68H28.829V8.584h3.056V10.09a4.222,4.222,0,0,1,1.561-1.233A4.828,4.828,0,0,1,35.531,8.409ZM47.886,20.874a6.377,6.377,0,0,1-2.663-.535,4.706,4.706,0,0,1-1.866-1.452,3.679,3.679,0,0,1-.753-2.03h3.078a1.677,1.677,0,0,0,.688,1.157,2.392,2.392,0,0,0,1.5.458,2.322,2.322,0,0,0,1.364-.349,1.057,1.057,0,0,0,.491-.9.944.944,0,0,0-.6-.884,11.3,11.3,0,0,0-1.91-.644,16.186,16.186,0,0,1-2.216-.677,3.847,3.847,0,0,1-1.484-1.07,2.871,2.871,0,0,1-.622-1.943,3.135,3.135,0,0,1,.578-1.834,3.884,3.884,0,0,1,1.659-1.31,6.219,6.219,0,0,1,2.543-.48,5.193,5.193,0,0,1,3.449,1.081,4,4,0,0,1,1.419,2.914H49.611a1.583,1.583,0,0,0-.6-1.146,2.706,2.706,0,0,0-2.707-.12.974.974,0,0,0-.448.851,1,1,0,0,0,.611.928,9.491,9.491,0,0,0,1.9.644,16.121,16.121,0,0,1,2.161.677A3.818,3.818,0,0,1,52,15.3a2.967,2.967,0,0,1,.644,1.932,3.2,3.2,0,0,1-.578,1.877,3.811,3.811,0,0,1-1.659,1.3A6.286,6.286,0,0,1,47.886,20.874Zm12.639,0a6.37,6.37,0,0,1-3.143-.775,5.58,5.58,0,0,1-2.194-2.194,6.574,6.574,0,0,1-.8-3.274,6.434,6.434,0,0,1,.819-3.274,5.689,5.689,0,0,1,2.238-2.194,6.852,6.852,0,0,1,6.331,0,5.689,5.689,0,0,1,2.238,2.194,6.434,6.434,0,0,1,.819,3.274,6.3,6.3,0,0,1-.84,3.274,5.82,5.82,0,0,1-2.27,2.194A6.6,6.6,0,0,1,60.526,20.874Zm0-2.663a3.179,3.179,0,0,0,1.561-.4A2.935,2.935,0,0,0,63.254,16.6a4.083,4.083,0,0,0,.437-1.965,3.64,3.64,0,0,0-.906-2.652,2.978,2.978,0,0,0-2.216-.928,2.908,2.908,0,0,0-2.194.928,3.7,3.7,0,0,0-.884,2.652,3.754,3.754,0,0,0,.862,2.652A2.839,2.839,0,0,0,60.526,18.211Zm11.613-7.75A4.205,4.205,0,0,1,75.85,8.409v3.209h-.808a3.1,3.1,0,0,0-2.172.677,3.12,3.12,0,0,0-.731,2.358v6.025H69.083V8.584h3.056Zm9.321.633v5.85a1.156,1.156,0,0,0,.295.884,1.448,1.448,0,0,0,.993.273h1.419v2.576H82.246q-3.864,0-3.864-3.755V11.095H76.942V8.584h1.441V5.593H81.46V8.584h2.707v2.51Zm6.462-3.951a1.862,1.862,0,0,1-1.343-.513,1.7,1.7,0,0,1-.535-1.277,1.7,1.7,0,0,1,.535-1.277,2.013,2.013,0,0,1,2.685,0A1.7,1.7,0,0,1,89.8,5.353a1.7,1.7,0,0,1-.535,1.277A1.862,1.862,0,0,1,87.922,7.143Zm1.506,1.441V20.678H86.372V8.584Zm14.429,0V20.678h-3.078V19.15a4.035,4.035,0,0,1-1.539,1.233,4.778,4.778,0,0,1-2.063.448,5.124,5.124,0,0,1-2.51-.6,4.232,4.232,0,0,1-1.714-1.768,5.843,5.843,0,0,1-.622-2.783V8.584h3.056v6.658a3.136,3.136,0,0,0,.72,2.216,2.551,2.551,0,0,0,1.965.775,2.579,2.579,0,0,0,1.986-.775,3.136,3.136,0,0,0,.72-2.216V8.584Zm18.031-.175a4.855,4.855,0,0,1,3.591,1.364,5.149,5.149,0,0,1,1.364,3.809v7.095h-3.056V14a3.021,3.021,0,0,0-.72-2.172,2.59,2.59,0,0,0-1.965-.753,2.626,2.626,0,0,0-1.976.753A2.993,2.993,0,0,0,118.4,14v6.68H115.34V14a3.021,3.021,0,0,0-.72-2.172,2.59,2.59,0,0,0-1.965-.753,2.655,2.655,0,0,0-2,.753A2.993,2.993,0,0,0,109.926,14v6.68H106.87V8.584h3.056v1.463a4.067,4.067,0,0,1,1.517-1.2,4.733,4.733,0,0,1,2.041-.437,5.25,5.25,0,0,1,2.532.6,4.207,4.207,0,0,1,1.725,1.714,4.378,4.378,0,0,1,1.714-1.681A4.879,4.879,0,0,1,121.889,8.409Z" transform="translate(213.056 102.147)" fill="#f4f5f7"/>
    <g id="logoipsum-logo-15_1_" data-name="logoipsum-logo-15 (1)" transform="translate(141 73.081)">
      <path id="Path_1" data-name="Path 1" d="M30.6,15.8A14.3,14.3,0,0,1,16.3,30.1H2V15.8a14.3,14.3,0,1,1,28.6,0Z" transform="translate(-2 -1.5)" fill="#fff"/>
      <path id="Path_2" data-name="Path 2" d="M24.5,38.3A14.3,14.3,0,0,1,38.8,24H53.1V38.3a14.3,14.3,0,0,1-28.6,0Z" transform="translate(4.096 4.596)" fill="#fff"/>
      <path id="Path_3" data-name="Path 3" d="M2,38.3A14.3,14.3,0,0,0,16.3,52.6H30.6V38.3A14.3,14.3,0,1,0,2,38.3Z" transform="translate(-2 4.596)" fill="#fff"/>
      <path id="Path_4" data-name="Path 4" d="M53.1,15.8A14.3,14.3,0,0,0,38.8,1.5H24.5V15.8a14.3,14.3,0,0,0,28.6,0Z" transform="translate(4.096 -1.5)" fill="#fff"/>
    </g>
  </g>
</svg>
