<svg xmlns="http://www.w3.org/2000/svg" width="224.014" height="58.907" viewBox="0 0 224.014 58.907">
  <path id="_64662cc9e70ebf83eb2c6e29_icon.mod--case3" data-name="64662cc9e70ebf83eb2c6e29_icon.mod--case3" d="M92.677,23.32V43.187h5.458V16.076a7.511,7.511,0,0,0-5.458,7.244Zm45.457,1.307-5.075,11.249-5.778-11.249h-5.849l8.889,17.262-.631,1.458c-.12.28-.262.591-.444.929s-.347.658-.534.96a4.94,4.94,0,0,1-.569.76.788.788,0,0,1-.546.307,1.176,1.176,0,0,1-.663-.169q-.256-.164-.506-.36a5.974,5.974,0,0,0-.551-.36,1.648,1.648,0,0,0-.8-.169,3.446,3.446,0,0,0-1.249.191,2.277,2.277,0,0,0-.787.48,1.589,1.589,0,0,0-.422.649,2.181,2.181,0,0,0-.12.7,1.687,1.687,0,0,0,.289.951,2.729,2.729,0,0,0,.782.747,4.029,4.029,0,0,0,1.138.5,5.083,5.083,0,0,0,1.369.178,5.939,5.939,0,0,0,1.946-.338,8.234,8.234,0,0,0,1.911-.951,8.393,8.393,0,0,0,2.934-3.444l9.191-20.28ZM116.8,37.543a5.977,5.977,0,0,1-1.333,1.271,6.614,6.614,0,0,1-1.627.858,5.23,5.23,0,0,1-1.8.32,3.255,3.255,0,0,1-1.929-.622A5.638,5.638,0,0,1,108.6,37.7a9,9,0,0,1-1.023-2.427,13.334,13.334,0,0,1-.444-2.9h12.627a7.5,7.5,0,0,0-2.387-5.524,8.376,8.376,0,0,0-2.711-1.658,10.27,10.27,0,0,0-7.382.16,8.83,8.83,0,0,0-2.987,2.115,9.519,9.519,0,0,0-1.916,3.187,11.479,11.479,0,0,0-.68,4,8.24,8.24,0,0,0,.729,3.422,8.89,8.89,0,0,0,2.009,2.849,9.776,9.776,0,0,0,2.978,1.938,9.252,9.252,0,0,0,3.653.72,8.417,8.417,0,0,0,2.987-.56,10.678,10.678,0,0,0,2.76-1.538,10.889,10.889,0,0,0,2.222-2.289,9.006,9.006,0,0,0,1.356-2.787L117.552,36A4.729,4.729,0,0,1,116.8,37.543Zm-9.24-8.533a4.265,4.265,0,0,1,.689-1.138,3.2,3.2,0,0,1,.889-.729,2.14,2.14,0,0,1,1.009-.258,2.937,2.937,0,0,1,1.231.258,3.137,3.137,0,0,1,1.009.742,3.886,3.886,0,0,1,.72,1.147,4.688,4.688,0,0,1,.338,1.467h-6.263a5.2,5.2,0,0,1,.36-1.489ZM75.823,25.9a6.865,6.865,0,0,0-2.329-1,14.386,14.386,0,0,0-3.378-.347,13.412,13.412,0,0,0-3.036.329,9.97,9.97,0,0,0-2.538.92,5.448,5.448,0,0,0-1.738,1.4,2.8,2.8,0,0,0-.64,1.778,2.191,2.191,0,0,0,.72,1.671,2.667,2.667,0,0,0,1.9.667,3.069,3.069,0,0,0,1.249-.218,1.929,1.929,0,0,0,.751-.582,2.223,2.223,0,0,0,.391-.849,4.592,4.592,0,0,0,.107-1,3.115,3.115,0,0,1,.111-.827,1.7,1.7,0,0,1,.382-.689,1.812,1.812,0,0,1,.715-.471,3.229,3.229,0,0,1,1.111-.169,2.3,2.3,0,0,1,1.778.729,3.631,3.631,0,0,1,.667,2.467v1.818l-.6.142c-.742.24-1.493.48-2.244.729s-1.493.5-2.178.787a18.377,18.377,0,0,0-1.987.991A8.027,8.027,0,0,0,63.4,35.4a5.4,5.4,0,0,0-1.089,1.52,4.342,4.342,0,0,0-.4,1.9,4.684,4.684,0,0,0,.378,1.867,4.31,4.31,0,0,0,1.08,1.5,5.012,5.012,0,0,0,1.711.991,6.7,6.7,0,0,0,2.267.36,8.161,8.161,0,0,0,1.609-.142,5.687,5.687,0,0,0,1.218-.378,5.328,5.328,0,0,0,.969-.569c.293-.222.591-.444.889-.711v1.458h5.555V29.521a4.7,4.7,0,0,0-.444-2.058,4.115,4.115,0,0,0-1.333-1.569Zm-3.769,13.16c-.56.409-1.071.756-1.538,1.035a2.666,2.666,0,0,1-1.333.444,1.1,1.1,0,0,1-.64-.209,2.146,2.146,0,0,1-.533-.56,3.179,3.179,0,0,1-.369-.822,3.414,3.414,0,0,1-.173-1.013,2.195,2.195,0,0,1,.409-1.258,5.536,5.536,0,0,1,1.067-1.142,9.529,9.529,0,0,1,1.48-.987,17.426,17.426,0,0,1,1.618-.791Zm-13.6-23.067L50.1,34.783l-8.991-18.8h-6.9L47.357,43.614h3.111L62.717,15.987Zm24.169,7.333V43.192H88.1V16.08a7.511,7.511,0,0,0-5.493,7.24ZM13.2,23.934a28.119,28.119,0,0,1-4.222.889c1.031,4.267,1.978,8.7,1.951,9.036A75.215,75.215,0,0,1,13.2,23.934Zm5.587-3.818C26.192-2.911,37.117.592,37.117.592S32.326-2.448,24.3,5.254c-3.876,3.72-6.742,10.031-8.791,16.253-.578.213-1.151.409-1.716.587C17.792,8.761,22.9,3.961,26.2,2.4c-2.267.889-9.618,3.973-14.222,19.369,0,0-.853-4.164-2.222-8.582a44.109,44.109,0,0,1,7.169-3.751A43.191,43.191,0,0,0,9.69,12.992C8.481,9.076,6.886,5.014,5.148,3.5A8.872,8.872,0,0,0,.006.863c1.876.444,4.333,7.156,6.409,14.307-5.569,4.173-5.258,6.8-5.258,6.8-.062,3.858,9.018,3.08,16.516-.311C23.819,18.92,28.308,14.6,29.615,11.636,29.019,12.734,27.046,16.023,18.783,20.116ZM2.837,21.894c-.613-1.333.889-3.764,3.724-6.258.742,2.582,1.431,5.2,2.022,7.582-3.031.333-5.222-.125-5.747-1.316Zm8,23.813s3.649-13.48,7.378-23.72a23.155,23.155,0,0,1-3.276,1.333,101.81,101.81,0,0,0-4.116,22.4ZM223.2,52.289v5.133l-3.729-5.133h-.827v6.489h.809V53.543l3.787,5.236h.777V52.289Zm-10.814-.107a3.363,3.363,0,1,0,3.223,3.36,3.165,3.165,0,0,0-3.223-3.36Zm0,6a2.651,2.651,0,1,1,2.387-2.636,2.406,2.406,0,0,1-2.387,2.636Zm-19.769-1.938a1.842,1.842,0,1,1-3.68,0V52.289h-.808v3.973a2.667,2.667,0,0,0,5.333-.027V52.289h-.809Zm12.729,2.542h.791V52.289h-.808Zm-4.1-1.364-3.725-5.129h-.827v6.489h.809V53.543l3.787,5.236h.782V52.289h-.826ZM176.09,53.005h2.053v5.778h.809V53.005h2.067v-.716h-4.911Zm-22.529,1.236a1.89,1.89,0,0,0-.136-.779,1.89,1.89,0,0,0-1.115-1.072,1.89,1.89,0,0,0-.784-.1h-2.592v6.493h.809V56.2h1.28l1.658,2.578h.956l-1.778-2.667a1.777,1.777,0,0,0,1.72-1.871Zm-3.835,1.249V53.005h1.742a1.244,1.244,0,1,1,0,2.484Zm22.728,3.289h.809V52.289h-.809Zm-15.862,0h4.254v-.711H157.4V55.845h3.4v-.72h-3.378V53.032h3.445v-.742h-4.254Zm9.542-6.489h-2.222v6.489h2.222a3.249,3.249,0,1,0,0-6.489Zm0,5.778h-1.422V53.005h1.422a2.531,2.531,0,1,1,0,5.062Zm-22.48.116a2.644,2.644,0,0,1,0-5.276,2.222,2.222,0,0,1,1.814.942l.68-.378a2.926,2.926,0,0,0-2.494-1.284,3.36,3.36,0,0,0,0,6.72,2.946,2.946,0,0,0,2.48-1.285l-.688-.378a2.179,2.179,0,0,1-1.8.929Zm78-15.556a5.982,5.982,0,0,0,1.271-1.058,11.278,11.278,0,0,0,1.009-1.333l-1.92-1.5a4.6,4.6,0,0,1-.338.4,6.267,6.267,0,0,1-.551.52,4.275,4.275,0,0,1-.64.444,1.238,1.238,0,0,1-.627.191.888.888,0,0,1-.782-.4,1.638,1.638,0,0,1-.28-.96V27.183h4.489V24.961h-4.5V19.152h-.213a3.938,3.938,0,0,0-3.556,2.387,8.637,8.637,0,0,1-1.217,1.978,5.782,5.782,0,0,1-1.578,1.333,3.741,3.741,0,0,1-1.849.489v1.818h2.867V39.112a5.478,5.478,0,0,0,.288,1.818,3.894,3.894,0,0,0,.858,1.409,3.977,3.977,0,0,0,1.44.92,5.707,5.707,0,0,0,2.009.329,8,8,0,0,0,2.147-.258,6.325,6.325,0,0,0,1.662-.711Zm-15.316-8.382a10.934,10.934,0,0,0-1.955-1.333,24.454,24.454,0,0,0-2.254-1.067c-.506-.213-.977-.444-1.408-.667a6.722,6.722,0,0,1-1.129-.76,3.527,3.527,0,0,1-.751-.889,1.912,1.912,0,0,1-.267-.978,1.242,1.242,0,0,1,.209-.729,1.77,1.77,0,0,1,.569-.529,2.931,2.931,0,0,1,.817-.333,4.243,4.243,0,0,1,.96-.107,5.513,5.513,0,0,1,.672.049,1.958,1.958,0,0,1,.76.289,2.8,2.8,0,0,1,.746.729,4.488,4.488,0,0,1,.622,1.369l3.2-1.138a8.422,8.422,0,0,0-1.08-1.5,5.755,5.755,0,0,0-1.4-1.12,6.948,6.948,0,0,0-1.827-.711,10.221,10.221,0,0,0-2.369-.249,9.269,9.269,0,0,0-2.666.369,6.439,6.439,0,0,0-2.089,1.049,4.777,4.777,0,0,0-1.333,1.64,4.664,4.664,0,0,0-.48,2.12,4.236,4.236,0,0,0,.528,2.147,6.048,6.048,0,0,0,1.387,1.649,10.673,10.673,0,0,0,1.889,1.307q1.062.56,2.138,1.04a13.007,13.007,0,0,1,1.266.64,5.263,5.263,0,0,1,1.04.76,3.134,3.134,0,0,1,.68.929,2.667,2.667,0,0,1,.24,1.147,1.625,1.625,0,0,1-.72,1.333,2.957,2.957,0,0,1-1.857.551,3.177,3.177,0,0,1-2.258-.84,5.5,5.5,0,0,1-1.418-2.32l-3.111,1.2a15.882,15.882,0,0,0,.929,1.524,5.884,5.884,0,0,0,1.36,1.382,7.11,7.11,0,0,0,2.018,1,9.269,9.269,0,0,0,2.889.391,11.477,11.477,0,0,0,3.413-.444,6.222,6.222,0,0,0,2.28-1.209,4.43,4.43,0,0,0,1.267-1.809,6.242,6.242,0,0,0,.391-2.222,4.045,4.045,0,0,0-.511-2.027A6.013,6.013,0,0,0,206.343,34.245ZM166.1,27.272H154.774V18.281H165.73a4.753,4.753,0,0,1,.373-1.222,5.522,5.522,0,0,1,.645-1.04v-.031H148.121v27.2h6.667V29.623h11.329Zm2.7,4.391V43.187h5.516V24.427a7.507,7.507,0,0,0-5.516,7.236Zm2.733-15.213a2.851,2.851,0,0,0-2.986,2.693,3,3,0,0,0,5.973,0A2.854,2.854,0,0,0,171.534,16.449Zm17.387,12.222a2.388,2.388,0,0,0,1.08.209,2.629,2.629,0,0,0,.929-.16,2.475,2.475,0,0,0,.76-.444,1.972,1.972,0,0,0,.52-.689,2.1,2.1,0,0,0,.191-.889,1.748,1.748,0,0,0-.28-.947,2.7,2.7,0,0,0-.769-.791,4.116,4.116,0,0,0-1.142-.538,4.675,4.675,0,0,0-1.387-.2,4.886,4.886,0,0,0-2.346.578,8.509,8.509,0,0,0-2.031,1.52V24.965h-5.512V43.187h5.512V30.067c.146-.32.306-.631.48-.938a6.864,6.864,0,0,1,.528-.809,2.885,2.885,0,0,1,.552-.56.915.915,0,0,1,.56-.209,1.674,1.674,0,0,1,.888.209c.232.138.445.289.7.444A6.363,6.363,0,0,0,188.921,28.672Z" fill="#f4f5f7"/>
</svg>
